<?xml version="1.0" standalone="no"?>
<!DOCTYPE svg PUBLIC "-//W3C//DTD SVG 20010904//EN"
 "http://www.w3.org/TR/2001/REC-SVG-20010904/DTD/svg10.dtd">
<svg version="1.0" xmlns="http://www.w3.org/2000/svg"
 width="1000.000000pt" height="1000.000000pt" viewBox="0 0 1000.000000 1000.000000"
 preserveAspectRatio="xMidYMid meet">
<metadata>
Created by potrace 1.15, written by Peter Selinger 2001-2017
</metadata>
<g transform="translate(0.000000,1000.000000) scale(0.100000,-0.100000)"
fill="#000000" stroke="none">
<path d="M4957 9243 c-4 -3 -7 -465 -7 -1025 0 -561 -2 -1024 -6 -1029 -3 -5
-5 -31 -3 -57 1 -26 -2 -55 -6 -65 -4 -9 -5 -26 -2 -37 3 -11 1 -23 -5 -26 -5
-3 -8 -15 -5 -25 3 -10 1 -22 -5 -25 -5 -3 -8 -15 -5 -25 3 -10 1 -22 -5 -25
-5 -3 -7 -12 -4 -19 2 -7 -1 -18 -7 -24 -6 -6 -7 -11 -3 -11 5 0 3 -7 -4 -15
-7 -8 -9 -15 -5 -15 4 0 2 -7 -5 -15 -7 -8 -9 -15 -5 -15 4 0 2 -7 -5 -15 -7
-8 -9 -15 -5 -15 4 0 2 -7 -5 -15 -7 -8 -9 -15 -5 -15 4 0 2 -7 -5 -15 -7 -8
-10 -15 -6 -15 4 0 -1 -15 -11 -32 -9 -18 -18 -37 -19 -43 -4 -22 -123 -219
-178 -295 -82 -111 -253 -273 -373 -353 -262 -175 -511 -251 -873 -267 -255
-12 -401 -38 -585 -107 -470 -175 -856 -582 -1010 -1064 -50 -157 -66 -261
-72 -464 -5 -166 -2 -206 17 -320 57 -337 205 -633 437 -875 143 -150 283
-253 458 -340 207 -103 395 -157 612 -175 l82 -7 6 -57 c48 -456 191 -768 489
-1067 240 -240 482 -372 821 -449 113 -26 381 -53 410 -41 14 5 16 21 14 100
-1 51 2 99 5 105 4 6 6 24 5 39 -1 15 2 35 6 45 4 9 5 24 2 32 -4 8 -1 17 4
21 6 3 9 15 6 25 -3 10 -1 22 5 25 5 3 7 12 4 20 -3 7 -1 16 5 20 6 3 8 12 5
20 -3 7 -1 16 5 20 6 3 8 12 5 19 -2 7 1 18 7 24 6 6 7 11 3 11 -5 0 -3 7 4
15 7 8 9 15 5 15 -4 0 -2 7 5 15 7 8 9 15 5 15 -4 0 0 11 9 25 9 14 14 25 11
25 -3 0 1 13 10 30 8 16 16 33 16 37 5 39 163 281 253 385 150 175 384 338
609 424 173 66 381 104 570 104 632 0 1210 359 1492 928 281 565 219 1238
-162 1750 -74 100 -247 271 -348 345 -241 177 -523 286 -818 318 l-119 13 3
1016 c3 1013 3 1015 -19 1134 -92 496 -391 920 -819 1164 -204 116 -448 190
-703 212 -136 12 -174 12 -183 3z m299 -128 c223 -39 442 -124 619 -240 231
-153 414 -363 540 -620 92 -188 138 -358 154 -573 5 -64 7 -558 4 -1098 l-6
-981 124 -6 c564 -26 1077 -362 1331 -872 252 -503 214 -1092 -100 -1560 -192
-287 -462 -495 -790 -609 -153 -53 -289 -76 -517 -86 -110 -5 -238 -16 -284
-25 -466 -83 -865 -349 -1123 -750 -48 -74 -132 -235 -123 -235 3 0 -2 -11
-11 -25 -9 -14 -13 -25 -9 -25 4 0 2 -7 -5 -15 -7 -8 -10 -15 -6 -15 4 0 0
-10 -9 -23 -8 -13 -12 -27 -9 -30 4 -4 1 -13 -6 -22 -7 -8 -9 -15 -5 -15 4 0
2 -7 -5 -15 -7 -8 -9 -15 -4 -15 4 0 3 -5 -3 -11 -6 -6 -9 -17 -7 -24 3 -7 1
-16 -4 -19 -6 -3 -8 -15 -5 -25 3 -10 0 -22 -5 -25 -6 -3 -8 -15 -5 -25 3 -10
0 -22 -6 -25 -5 -4 -8 -13 -4 -21 3 -8 2 -23 -2 -32 -4 -10 -7 -34 -6 -54 1
-21 -2 -40 -8 -44 -6 -3 -11 -27 -11 -52 l0 -46 -82 6 c-239 17 -520 117 -743
265 -138 91 -317 272 -413 415 -164 247 -250 507 -268 813 l-7 111 -121 6
c-703 33 -1289 526 -1452 1222 -26 111 -28 136 -29 330 0 184 3 223 23 313 34
153 66 242 137 387 181 367 522 664 910 794 151 50 282 72 495 81 328 15 506
58 748 179 248 124 445 295 614 531 57 78 157 254 162 283 1 7 10 27 19 45 10
17 15 32 11 32 -4 0 -1 7 6 15 7 8 9 15 5 15 -4 0 -2 7 5 15 7 8 9 15 5 15 -4
0 -2 7 5 15 7 8 9 15 5 15 -4 0 -2 7 5 15 7 8 9 15 4 15 -4 0 -3 5 3 11 6 6 9
17 7 24 -3 7 -1 16 5 19 6 4 8 13 5 20 -3 8 -1 17 4 20 6 3 8 15 5 25 -3 10 0
22 6 25 5 4 7 14 4 22 -3 8 0 26 7 39 7 13 10 33 7 44 -3 12 -1 24 5 27 5 3 8
30 7 60 -2 29 0 57 4 61 4 3 7 442 7 975 l0 968 49 0 c26 0 88 -7 137 -15z"/>
</g>
</svg>
