<?xml version="1.0" encoding="UTF-8" standalone="no"?>
<svg version="1.0" width="1000.000000pt" height="1000.000000pt" viewBox="0 0 1000.000000 1000.000000" preserveAspectRatio="xMidYMid meet" id="svg138" xmlns:sodipodi-0.dtd="http://sodipodi.sourceforge.net/DTD/sodipodi-0.dtd" sodipodi-0.dtd:docname="maskFix.svg" xmlns:inkscape="http://www.inkscape.org/namespaces/inkscape" inkscape:version="1.2.2 (b0a8486, 2022-12-01)" xmlns:inkscape="http://www.inkscape.org/namespaces/inkscape" xmlns:sodipodi="http://sodipodi.sourceforge.net/DTD/sodipodi-0.dtd" xmlns="http://www.w3.org/2000/svg" xmlns:svg="http://www.w3.org/2000/svg">
  <defs id="defs142"></defs>
  <namedview id="namedview140" pagecolor="#ffffff" bordercolor="#000000" borderopacity="0.25" inkscape:showpageshadow="2" inkscape:pageopacity="0.0" inkscape:pagecheckerboard="0" inkscape:deskcolor="#d1d1d1" inkscape:document-units="pt" showgrid="false" inkscape:zoom="0.4448539" inkscape:cx="383.2719" inkscape:cy="585.58551" inkscape:window-width="1476" inkscape:window-height="845" inkscape:window-x="-1" inkscape:window-y="71" inkscape:window-maximized="0" inkscape:current-layer="g136"></namedview>
  <metadata id="metadata132">
Created by potrace 1.15, written by Peter Selinger 2001-2017
</metadata>
  <g transform="translate(0.000000,1000.000000) scale(0.100000,-0.100000)" fill="#000000" stroke="none" id="g136">
    <path style="stroke-width:5.00000003;stroke-dasharray:none;fill:#000000;fill-opacity:1;stroke:none" d="m 5256,9115 c 223,-39 442,-124 619,-240 231,-153 414,-363 540,-620 92,-188 138,-358 154,-573 5,-64 7,-558 4,-1098 l -6,-981 124,-6 c 564,-26 1077,-362 1331,-872 252,-503 214,-1092 -100,-1560 -192,-287 -462,-495 -790,-609 -153,-53 -289,-76 -517,-86 -110,-5 -238,-16 -284,-25 -466,-83 -865,-349 -1123,-750 -48,-74 -132,-235 -123,-235 3,0 -2,-11 -11,-25 -9,-14 -13,-25 -9,-25 4,0 2,-7 -5,-15 -7,-8 -10,-15 -6,-15 4,0 0,-10 -9,-23 -8,-13 -12,-27 -9,-30 4,-4 1,-13 -6,-22 -7,-8 -9,-15 -5,-15 4,0 2,-7 -5,-15 -7,-8 -9,-15 -4,-15 4,0 3,-5 -3,-11 -6,-6 -9,-17 -7,-24 3,-7 1,-16 -4,-19 -6,-3 -8,-15 -5,-25 3,-10 0,-22 -5,-25 -6,-3 -8,-15 -5,-25 3,-10 0,-22 -6,-25 -5,-4 -8,-13 -4,-21 3,-8 2,-23 -2,-32 -4,-10 -7,-34 -6,-54 1,-21 -2,-40 -8,-44 -6,-3 -11,-27 -11,-52 v -46 l -82,6 c -239,17 -520,117 -743,265 -138,91 -317,272 -413,415 -164,247 -250,507 -268,813 l -7,111 -121,6 c -703,33 -1289,526 -1452,1222 -26,111 -28,136 -29,330 0,184 3,223 23,313 34,153 66,242 137,387 181,367 522,664 910,794 151,50 282,72 495,81 328,15 506,58 748,179 248,124 445,295 614,531 57,78 157,254 162,283 1,7 10,27 19,45 10,17 15,32 11,32 -4,0 -1,7 6,15 7,8 9,15 5,15 -4,0 -2,7 5,15 7,8 9,15 5,15 -4,0 -2,7 5,15 7,8 9,15 5,15 -4,0 -2,7 5,15 7,8 9,15 4,15 -4,0 -3,5 3,11 6,6 9,17 7,24 -3,7 -1,16 5,19 6,4 8,13 5,20 -3,8 -1,17 4,20 6,3 8,15 5,25 -3,10 0,22 6,25 5,4 7,14 4,22 -3,8 0,26 7,39 7,13 10,33 7,44 -3,12 -1,24 5,27 5,3 8,30 7,60 -2,29 0,57 4,61 4,3 7,442 7,975 v 968 h 49 c 26,0 88,-7 137,-15 z" id="path1701"></path>
  </g>
</svg>